# Blender v2.80 (sub 75) OBJ File: 'quad.blend'
# www.blender.org
mtllib sphere.mtl
o Plane.002_Plane.003
v -1.000000 0.000000 1.000000
v 1.000000 0.000000 1.000000
v -1.000000 0.000000 -1.000000
v 1.000000 0.000000 -1.000000
v 0.000000 0.348042 0.000000
vt 0.000000 0.000000
vt 1.000000 0.000000
vt 0.500000 0.500000
vt 1.000000 1.000000
vt 0.000000 1.000000
vn 0.0000 0.9444 0.3287
vn 0.3287 0.9444 0.0000
vn 0.0000 0.9444 -0.3287
vn -0.3287 0.9444 0.0000
usemtl None
s off
f 1/1/1 2/2/1 5/3/1
f 2/2/2 4/4/2 5/3/2
f 4/4/3 3/5/3 5/3/3
f 3/5/4 1/1/4 5/3/4
